# File created by Blade
# Date/Time:  Tue Jan 27 17:01:38 2015
# Frame Rate: 120.000 fps
#------------------------------------------------------
:FULLY-SPECIFIED
:DEGREES
3261
root -1.517097 36.837960 6.081966 9.612812 16.311852 0.981201
Spine -11.142577 16.667016 -8.836487
Head 6.044003 3.570730 3.349841
LeftShoulder -13.272068 -9.546125 -0.990770
LeftArm -10.509068 -56.547466 -49.530099
LeftForeArm -50.302627 -0.000000 131.114315
LeftHand -6.908740 -0.000000 48.151284
LeftHandThumb1 -26.253704 0.000000 33.147579
RightShoulder -2.345724 -24.274203 -4.438215
RightArm 22.127908 -32.619523 58.614963
RightForeArm -148.600350 -0.000000 34.368324
RightHand -1.677290 -0.000000 -2.650317
RightHandThumb1 -24.326973 -0.000000 -32.862282
LeftUpLeg -8.415500 4.657511 5.401512
LeftLeg 6.950535 -0.000000 -0.000000
LeftFoot -12.402260 -3.136293 -21.183916
LeftToeBase 15.028279 -0.000000 -0.000000
RightUpLeg -5.950894 -16.522847 0.481312
RightLeg 10.709284 -0.000000 -0.000000
RightFoot -20.822332 -11.365109 16.741589
RightToeBase 10.872093 -0.000000 -0.000000
3262
root -1.520007 36.839160 6.081655 9.639775 16.334680 0.986785
Spine -11.173039 16.664711 -8.844339
Head 6.100130 3.569516 3.277415
LeftShoulder -13.282587 -9.560334 -1.032991
LeftArm -10.523269 -56.650707 -49.489870
LeftForeArm -50.276049 -0.000000 131.153124
LeftHand -6.948772 -0.000000 48.222975
LeftHandThumb1 -26.253704 0.000000 33.147579
RightShoulder -2.333863 -24.277458 -4.490913
RightArm 22.101472 -32.619564 58.656558
RightForeArm -148.708868 -0.000000 34.313483
RightHand -1.686393 -0.000000 -2.490374
RightHandThumb1 -24.326973 -0.000000 -32.862282
LeftUpLeg -8.445647 4.673604 5.397460
LeftLeg 6.945869 -0.000000 -0.000000
LeftFoot -12.356228 -3.161897 -21.183869
LeftToeBase 14.971575 -0.000000 -0.000000
RightUpLeg -5.970714 -16.527683 0.491111
RightLeg 10.696236 -0.000000 -0.000000
RightFoot -20.821094 -11.378924 16.744631
RightToeBase 10.893194 -0.000000 -0.000000
3263
root -1.520213 36.840195 6.077262 9.693884 16.463901 1.015474
Spine -11.204118 16.542761 -8.843672
Head 6.095850 3.604675 3.226030
LeftShoulder -13.313138 -9.577188 -1.073136
LeftArm -10.548747 -56.745068 -49.466344
LeftForeArm -50.254928 0.000000 131.189608
LeftHand -6.791647 -0.000000 48.351913
LeftHandThumb1 -26.253704 0.000000 33.147579
RightShoulder -2.308442 -24.272498 -4.558665
RightArm 22.076789 -32.646819 58.644952
RightForeArm -148.660084 -0.000000 34.294722
RightHand -1.617641 -0.000000 -2.507101
RightHandThumb1 -24.326973 -0.000000 -32.862282
LeftUpLeg -8.528460 4.531189 5.385303
LeftLeg 6.955688 -0.000000 -0.000000
LeftFoot -12.334925 -3.133875 -21.184848
LeftToeBase 14.965391 -0.000000 -0.000000
RightUpLeg -6.009973 -16.672534 0.495782
RightLeg 10.686969 -0.000000 -0.000000
RightFoot -20.818479 -11.356758 16.733501
RightToeBase 10.908867 -0.000000 -0.000000
3264
root -1.522651 36.840606 6.076794 9.725173 16.490058 1.022896
Spine -11.246207 16.537803 -8.857571
Head 6.169920 3.616924 3.163821
LeftShoulder -13.327601 -9.574063 -1.103507
LeftArm -10.542469 -56.832328 -49.468617
LeftForeArm -50.080678 -0.000000 131.223975
LeftHand -6.793800 -0.000000 48.531008
LeftHandThumb1 -26.253704 0.000000 33.147579
RightShoulder -2.290169 -24.292678 -4.618235
RightArm 22.073003 -32.666837 58.652060
RightForeArm -148.741122 -0.000000 34.265911
RightHand -1.661712 -0.000000 -2.406124
RightHandThumb1 -24.326973 -0.000000 -32.862282
LeftUpLeg -8.562240 4.529838 5.379572
LeftLeg 6.958973 -0.000000 -0.000000
LeftFoot -12.284731 -3.142770 -20.994618
LeftToeBase 14.739583 -0.000000 -0.000000
RightUpLeg -6.039433 -16.685244 0.505712
RightLeg 10.684490 -0.000000 -0.000000
RightFoot -20.816324 -11.374372 16.738780
RightToeBase 10.855860 -0.000000 -0.000000
3265
root -1.525440 36.841134 6.078081 9.745497 16.514480 1.030505
Spine -11.273798 16.534525 -8.873141
Head 6.203396 3.637592 3.119105
LeftShoulder -13.340958 -9.575691 -1.137357
LeftArm -10.547522 -56.915743 -49.456315
LeftForeArm -49.932610 -0.000000 131.247661
LeftHand -6.853859 -0.000000 48.638592
LeftHandThumb1 -26.253704 0.000000 33.147579
RightShoulder -2.270470 -24.291176 -4.676263
RightArm 22.059542 -32.683633 58.663176
RightForeArm -148.701725 0.000000 34.235508
RightHand -1.632945 0.000000 -2.487460
RightHandThumb1 -24.326973 -0.000000 -32.862282
LeftUpLeg -8.578443 4.533084 5.379629
LeftLeg 6.936550 -0.000000 -0.000000
LeftFoot -12.295817 -3.163310 -21.153120
LeftToeBase 14.981122 -0.000000 -0.000000
RightUpLeg -6.053298 -16.689745 0.511782
RightLeg 10.681121 -0.000000 -0.000000
RightFoot -20.821879 -11.401600 16.729370
RightToeBase 10.879148 -0.000000 -0.000000
3266
root -1.528352 36.841844 6.078797 9.764981 16.536565 1.036695
Spine -11.302930 16.532614 -8.885266
Head 6.241665 3.645905 3.063117
LeftShoulder -13.356449 -9.588843 -1.174775
LeftArm -10.571140 -57.001296 -49.420644
LeftForeArm -49.823474 -0.000000 131.269207
LeftHand -6.899442 -0.000000 48.805765
LeftHandThumb1 -26.253704 0.000000 33.147579
RightShoulder -2.236481 -24.308996 -4.743919
RightArm 22.058168 -32.681401 58.673166
RightForeArm -148.670988 0.000000 34.211823
RightHand -1.618721 -0.000000 -2.548721
RightHandThumb1 -24.326973 -0.000000 -32.862282
LeftUpLeg -8.595037 4.542005 5.377856
LeftLeg 6.921684 -0.000000 -0.000000
LeftFoot -12.267163 -3.180404 -21.167453
LeftToeBase 14.991878 -0.000000 -0.000000
RightUpLeg -6.068010 -16.680946 0.517797
RightLeg 10.679160 -0.000000 -0.000000
RightFoot -20.834052 -11.418805 16.757739
RightToeBase 10.880254 -0.000000 -0.000000
